<svg id="Layer_1" data-name="Layer 1" xmlns="http://www.w3.org/2000/svg" viewBox="0 0 512 489.59"><defs><style>.cls-1{fill:#18b8ea;}.cls-2{fill:#7fbf23;}</style></defs><title>vp</title><path class="cls-1" d="M468.91,214.6a20.68,20.68,0,0,0-20.68,20.69v20.83A203.44,203.44,0,0,1,244.8,459.43h-.12C132.51,459.36,41.3,368.06,41.36,255.88A203.44,203.44,0,0,1,244.79,52.57h.12a202.22,202.22,0,0,1,82.68,17.61A20.68,20.68,0,1,0,344.43,32.4a243,243,0,0,0-99.5-21.19h-.14A244.79,244.79,0,0,0,71.6,429a243.22,243.22,0,0,0,173.05,71.8h.15A244.8,244.8,0,0,0,489.59,256.13V235.29A20.68,20.68,0,0,0,468.91,214.6Z" transform="translate(0 -11.21)"/><path class="cls-2" d="M505.94,39.8a20.7,20.7,0,0,0-29.25,0L244.79,271.7l-52.61-52.61a20.68,20.68,0,0,0-29.24,29.25l67.23,67.23a20.68,20.68,0,0,0,29.25,0L505.94,69.05A20.68,20.68,0,0,0,505.94,39.8Z" transform="translate(0 -11.21)"/></svg>